<svg id="Group_1156" data-name="Group 1156" xmlns="http://www.w3.org/2000/svg" width="120" height="119.644" viewBox="0 0 120 119.644">
  <g id="Group_1150" data-name="Group 1150" transform="translate(32.157 0)">
    <path id="Path_635" data-name="Path 635" d="M169.093,75.834a10.194,10.194,0,0,1-9.7,10.17,10.179,10.179,0,0,1-6.714,17.838H120.961c5.759,11.627,4.156,33.736,4.035,35.282-.025,3.672-2.253,10.52-10.571,10.52-8.369,0-10.577-6.918-10.577-10.571,0-21.027-11.716-35.855-22.6-36.669V99.851c6.224.375,12.429,4.474,17.17,11.373,5.142,7.5,7.974,17.393,7.974,27.843a10.41,10.41,0,0,0,1.063,4.156c1.317,2.571,3.659,3.876,6.969,3.876s5.645-1.3,6.962-3.876a10.413,10.413,0,0,0,1.063-4.149v-.1c.025-.255,1.928-25.017-4.569-35.448a10.186,10.186,0,0,1-2.527-18.7,10.179,10.179,0,0,1-.153-17.9,10.179,10.179,0,0,1,0-17.819,10.177,10.177,0,0,1-2.189-16.19c-11.786.668-27.384,2.138-31.763,3.112v-2.6c6.542-1.279,26.277-2.947,37.522-3.335a.038.038,0,0,1,.025-.006h.051c1.553-.051,2.94-.083,4.1-.083h29.077a10.187,10.187,0,0,1,6.16,18.3,10.176,10.176,0,0,1,3.277,17.673A10.21,10.21,0,0,1,169.093,75.834ZM112.777,93.653a7.648,7.648,0,0,0,7.637,7.643H152.68a7.64,7.64,0,1,0,0-15.28H120.414A7.647,7.647,0,0,0,112.777,93.653Zm46.89-53.47a7.643,7.643,0,0,0-7.637-7.637h-31.9a7.5,7.5,0,0,0-1.076.076h-.032a7.643,7.643,0,0,0,1.107,15.2h31.9A7.648,7.648,0,0,0,159.667,40.182Zm3.1,17.826a7.643,7.643,0,0,0-7.637-7.637h-35a7.637,7.637,0,1,0,0,15.274h35A7.643,7.643,0,0,0,162.767,58.008ZM158.9,68.19H120.128a7.64,7.64,0,0,0,0,15.28H158.9a7.64,7.64,0,1,0,0-15.28Z" transform="translate(-81.25 -30)" fill="#fff"/>
  </g>
  <path id="Path_636" data-name="Path 636" d="M30.72,100.98v72.556H62.877V100.98Z" transform="translate(-30.72 -99.064)" fill="#970a82"/>
  <rect id="Rectangle_349" data-name="Rectangle 349" width="32.157" height="18.137" transform="translate(0 1.916)" fill="#f0ab00"/>
  <rect id="Rectangle_350" data-name="Rectangle 350" width="32.157" height="18.137" transform="translate(0 20.053)" fill="#f0ab00" opacity="0.7"/>
  <rect id="Rectangle_351" data-name="Rectangle 351" width="32.157" height="18.144" transform="translate(0 38.19)" fill="#f0ab00" opacity="0.4"/>
</svg>
